<?xml version="1.0" standalone="no"?>
<!DOCTYPE svg PUBLIC "-//W3C//DTD SVG 20010904//EN"
 "http://www.w3.org/TR/2001/REC-SVG-20010904/DTD/svg10.dtd">
<svg version="1.0" xmlns="http://www.w3.org/2000/svg"
 width="512.000000pt" height="512.000000pt" viewBox="0 0 512.000000 512.000000"
 preserveAspectRatio="xMidYMid meet">
<metadata>
Created by potrace 1.11, written by Peter Selinger 2001-2013
</metadata>
<g transform="translate(0.000000,512.000000) scale(0.100000,-0.100000)"
fill="#000000" stroke="none">
<path d="M2565 4116 c-179 -57 -269 -205 -290 -482 -3 -44 -10 -58 -42 -91
-21 -22 -60 -63 -88 -93 -36 -38 -71 -63 -125 -87 -125 -57 -140 -65 -175
-104 -33 -37 -68 -127 -69 -177 0 -19 -13 -30 -72 -58 -39 -19 -89 -50 -112
-69 -50 -43 -108 -130 -129 -193 -21 -64 -34 -76 -133 -129 -140 -75 -219
-123 -241 -146 -19 -19 -46 -72 -54 -102 -1 -5 -6 -25 -10 -42 -4 -18 -12 -33
-17 -33 -5 0 -7 -3 -4 -8 11 -18 -27 -74 -78 -112 -31 -23 -56 -46 -56 -49 0
-4 -8 -16 -18 -27 -34 -39 -41 -126 -16 -192 18 -48 24 -57 61 -97 50 -55 50
-115 4 -405 -5 -30 -8 -100 -7 -155 2 -79 7 -109 23 -140 38 -72 79 -95 169
-91 78 3 135 27 186 79 75 77 79 164 17 342 -40 116 -48 145 -52 195 -1 18 2
24 13 21 35 -9 120 -4 134 8 19 16 36 76 41 139 3 55 7 57 128 66 49 3 132 13
186 21 53 8 121 17 151 20 30 4 65 8 78 10 13 2 55 7 93 11 l69 7 1 -29 c0
-16 2 -38 4 -49 2 -11 5 -47 6 -80 4 -94 14 -120 54 -140 52 -24 87 -22 136
11 62 41 100 118 104 216 2 40 4 78 4 84 1 6 7 11 14 11 19 0 187 17 262 27
22 2 67 7 100 11 33 3 71 8 85 10 14 2 70 9 125 15 55 6 111 13 125 15 14 3
50 7 80 10 30 3 73 7 94 10 32 3 47 -1 73 -21 45 -34 93 -52 120 -45 24 7 76
51 91 76 5 10 24 19 43 21 87 9 139 14 194 19 33 3 74 8 90 10 33 4 156 15
220 19 98 7 153 33 156 74 1 9 3 33 5 52 11 98 5 270 -13 355 -9 38 -8 33 -16
80 -9 46 -31 111 -58 172 -11 24 -19 47 -19 51 0 5 -20 46 -45 92 -25 46 -45
87 -45 91 0 4 -3 9 -7 11 -11 5 -73 97 -73 108 0 6 -4 10 -8 10 -5 0 -23 20
-40 44 -81 113 -298 319 -472 447 -85 63 -256 174 -312 204 -21 11 -38 23 -38
27 0 5 -7 8 -16 8 -9 0 -30 10 -47 22 -18 13 -33 22 -35 20 -1 -1 -24 7 -50
18 -120 54 -226 82 -322 85 -58 2 -111 -1 -135 -9z m145 -240 c132 -28 281
-88 445 -181 68 -38 199 -127 203 -137 2 -4 8 -8 13 -8 12 0 57 -39 150 -130
86 -84 131 -136 246 -281 82 -104 182 -244 177 -248 -2 -2 -20 -5 -39 -6 -52
-4 -147 -42 -179 -72 -31 -28 -40 -23 -52 27 -16 66 -97 196 -168 270 -52 55
-185 160 -202 160 -3 0 -18 8 -32 19 -15 10 -85 48 -157 84 -156 77 -197 95
-340 149 -44 17 -101 36 -126 43 -44 12 -48 11 -77 -12 -26 -20 -38 -23 -68
-17 l-36 7 6 76 c9 116 35 194 86 253 18 22 62 23 150 4z m-262 -430 c9 -1 32
-9 50 -19 30 -16 34 -16 65 -1 17 9 35 21 38 27 7 10 67 -8 230 -73 221 -88
343 -164 474 -295 89 -89 102 -105 149 -179 51 -78 84 -154 101 -231 19 -83
34 -125 46 -125 14 0 10 -32 -11 -93 -29 -83 -40 -170 -23 -193 11 -15 27 -17
125 -15 61 1 117 5 122 8 8 4 8 2 1 -5 -9 -9 -57 -15 -206 -27 -46 -3 -78 -20
-107 -56 -26 -33 -35 -35 -54 -15 -8 7 -29 21 -47 30 -22 12 -30 21 -23 29 9
13 8 159 -3 214 -8 46 -33 49 -114 14 -39 -17 -71 -28 -71 -24 0 3 -6 1 -13
-5 -16 -13 -142 -9 -160 6 -18 15 -75 4 -111 -22 -56 -40 -79 -47 -146 -43
-80 5 -104 -4 -150 -52 -30 -33 -45 -40 -103 -51 -37 -7 -70 -16 -73 -21 -3
-5 -9 -7 -13 -5 -4 3 -24 -10 -44 -27 -47 -40 -59 -80 -41 -132 8 -26 12 -78
11 -150 -2 -121 -20 -170 -65 -182 -40 -10 -50 13 -57 132 -8 144 -8 147 -31
159 -10 6 -21 12 -24 14 -3 2 3 9 12 16 44 32 41 98 -5 115 -30 12 -160 0
-209 -18 -15 -5 -35 0 -67 18 -25 13 -49 29 -52 34 -8 11 -115 3 -149 -12 -57
-24 -120 -98 -120 -142 0 -49 32 -74 100 -79 40 -3 -31 -18 -120 -25 -41 -3
-102 -8 -135 -11 -33 -2 -63 -8 -66 -12 -4 -4 -9 -38 -12 -77 -3 -38 -10 -82
-16 -97 l-10 -27 -46 20 c-59 26 -88 19 -109 -25 -20 -43 -20 -95 0 -166 8
-30 16 -59 17 -65 2 -5 5 -14 8 -20 4 -5 16 -42 28 -80 43 -143 32 -212 -39
-244 -42 -19 -115 -20 -149 -2 -40 22 -54 76 -48 185 3 56 9 117 12 136 44
241 45 344 3 395 -29 35 -68 89 -69 94 0 3 -3 18 -5 34 -3 15 0 27 6 27 5 0 9
5 8 11 -2 7 28 36 67 66 62 49 105 99 105 122 0 5 8 26 17 47 9 22 18 44 19
49 18 77 63 118 214 196 184 94 207 115 240 216 17 49 52 106 91 142 29 28
109 71 157 86 29 9 72 51 73 73 0 9 2 26 5 37 2 11 5 32 6 48 1 15 6 27 10 27
4 0 7 3 7 8 -4 27 5 44 29 53 134 54 172 72 172 80 0 5 5 9 11 9 12 0 12 0
117 103 43 42 84 77 90 77 7 0 12 5 12 10 0 6 11 3 25 -6 14 -9 33 -17 43 -18z
m1521 -857 c102 -23 106 -28 96 -111 -10 -82 -13 -88 -48 -89 -89 -2 -153 -14
-242 -43 -38 -13 -85 -26 -103 -30 -33 -6 -34 -6 -27 27 16 77 26 105 52 139
42 54 113 108 151 114 8 1 16 5 20 8 7 8 -3 9 101 -15z m-671 -276 c2 -20 5
-40 8 -45 6 -10 15 -9 -198 -12 l-176 -2 38 23 c35 21 43 22 89 12 75 -16 130
-5 196 40 17 12 32 21 35 21 3 0 7 -16 8 -37z m-1471 -188 c8 -22 4 -24 -63
-30 l-59 -6 28 25 c32 29 84 35 94 11z"/>
<path d="M2609 3176 c-2 -2 -33 -6 -69 -9 -36 -3 -85 -13 -109 -21 -24 -9 -52
-16 -62 -16 -63 0 -192 -81 -214 -135 -21 -51 12 -93 89 -116 25 -7 46 -16 46
-20 0 -3 6 -6 13 -6 6 0 24 -3 40 -7 15 -3 39 -9 55 -12 36 -8 135 -8 195 0
28 4 95 31 166 68 156 80 159 92 50 200 -25 25 -60 53 -77 62 -28 14 -112 22
-123 12z m-14 -87 c22 -5 48 -11 58 -14 9 -2 23 -7 30 -12 6 -4 15 -8 20 -8
16 0 6 -20 -10 -21 -121 -7 -216 -16 -253 -24 -61 -12 -127 -13 -114 0 5 5 44
28 87 50 81 42 113 47 182 29z"/>
<path d="M3200 2883 c0 -4 -12 -8 -27 -8 -50 -1 -135 -15 -155 -26 -11 -6 -32
-13 -46 -15 -49 -8 -137 -45 -162 -67 -63 -56 -72 -92 -34 -131 15 -14 31 -26
36 -26 5 0 28 -13 51 -28 58 -40 145 -80 189 -87 48 -9 98 8 123 42 32 45 75
82 114 100 49 22 71 42 71 65 0 22 -26 75 -46 96 -8 7 -18 21 -23 30 -10 19
-91 68 -91 55z m-37 -99 c45 -15 64 -43 32 -45 -19 -2 -24 -3 -60 -18 -16 -6
-42 -16 -57 -22 -24 -10 -41 -8 -108 8 -8 2 -21 5 -29 5 -34 3 114 87 155 88
11 0 41 -7 67 -16z"/>
<path d="M1970 2559 c-176 -25 -243 -60 -297 -153 -26 -47 16 -105 110 -153
62 -31 92 -25 153 32 25 24 81 62 125 85 43 22 83 49 87 58 13 25 -4 75 -34
106 -15 14 -29 26 -33 27 -24 4 -73 3 -111 -2z m20 -70 c0 -5 -27 -22 -60 -38
-70 -35 -80 -23 -16 18 44 27 76 36 76 20z"/>
</g>
</svg>
